<svg width="161" height="28" viewBox="0 0 161 28" fill="none" xmlns="http://www.w3.org/2000/svg">
<path d="M27.5503 22.4C32.2081 22.4 35.984 18.6392 35.984 14C35.984 9.36082 32.2081 5.6 27.5503 5.6C23.1789 5.6 19.5843 8.91247 19.1587 13.1547C17.4356 12.3785 15.5741 11.9146 13.6678 11.7926C14.7306 5.10938 20.5413 0 27.5503 0C35.3133 0 41.6065 6.26802 41.6065 14C41.6065 21.45 35.764 27.5408 28.3936 27.9752V28H19.1302V26.7782C19.1302 25.1909 18.473 23.6475 17.2684 22.4935C16.0604 21.3363 14.4012 20.6691 12.6506 20.6691C10.9 20.6691 9.24077 21.3363 8.03278 22.4935C6.82826 23.6475 6.17103 25.1909 6.17103 26.7782V28H0V26.7483C0 23.476 1.36348 20.3634 3.74838 18.0879C6.05698 15.8851 9.13985 14.6371 12.3492 14.5635C12.4495 14.5612 12.55 14.56 12.6506 14.56C12.7285 14.56 12.8063 14.5607 12.8841 14.5621C16.1178 14.6196 19.2279 15.8695 21.5528 18.0879C22.8407 19.3167 23.8308 20.7896 24.469 22.4H27.5503Z" fill="#A3E642"/>
<path d="M15.2348 24.4472C15.9201 25.0408 16.3052 25.8459 16.3052 26.6854V28H8.99597V26.6854C8.99597 25.8459 9.38104 25.0408 10.0664 24.4472C10.7517 23.8535 11.6813 23.52 12.6506 23.52C13.6198 23.52 14.5494 23.8535 15.2348 24.4472Z" fill="#A3E642"/>
<path d="M30.7704 12.6254C29.7541 12.6254 28.9303 11.805 28.9303 10.7928V10.3345C28.9303 9.57546 28.3124 8.96002 27.5502 8.96002C26.788 8.96002 26.1702 9.57539 26.1702 10.3345V10.7928C26.1702 11.805 25.3464 12.6254 24.3301 12.6254H23.87C23.1079 12.6254 22.49 13.2409 22.49 14C22.49 14.7592 23.1079 15.3745 23.87 15.3745H24.3301C25.3464 15.3745 26.1702 16.1951 26.1702 17.2073V17.6655C26.1702 18.4247 26.788 19.04 27.5502 19.04C28.3124 19.04 28.9303 18.4247 28.9303 17.6655V17.2073C28.9303 16.1951 29.7541 15.3745 30.7704 15.3745H31.2304C31.9926 15.3745 32.6105 14.7592 32.6105 14C32.6105 13.2409 31.9926 12.6254 31.2304 12.6254H30.7704Z" fill="#A3E642"/>
<path d="M7.87156 2.24003C7.87156 3.47712 8.87847 4.47999 10.1206 4.47999H10.6827C11.6143 4.47999 12.3695 5.23216 12.3695 6.15999C12.3695 7.08785 11.6143 7.84 10.6827 7.84H10.1206C8.87847 7.84 7.87156 8.84289 7.87156 10.0799V10.64C7.87156 11.5678 7.11639 12.32 6.18482 12.32C5.25325 12.32 4.49807 11.5678 4.49807 10.64V10.08C4.49807 8.84289 3.49116 7.84 2.24907 7.84H1.68675C0.755185 7.84 0 7.08785 0 6.15999C0 5.23216 0.755185 4.47999 1.68675 4.47999H2.24908C3.49116 4.47999 4.49807 3.47712 4.49807 2.24V1.68C4.49807 0.752164 5.25325 0 6.18482 0C7.11639 0 7.87156 0.752164 7.87156 1.68V2.24003Z" fill="#A3E642"/>
<path d="M49.472 20.452L51.734 19.828V8.57L49.55 8.752L47.626 11.066L45.728 10.91C45.728 9.47133 45.7973 7.66 45.936 5.476H62.212C62.3507 7.66 62.42 9.47133 62.42 10.91L60.548 11.066L58.598 8.752L56.466 8.57V18.788C56.466 19.204 56.492 19.4727 56.544 19.594C56.596 19.7153 56.7433 19.8367 56.986 19.958L58.598 20.92L58.494 23H49.602L49.472 20.452ZM63.6278 20.53L65.2138 20.062V13.744C65.2138 13.3627 65.1878 13.12 65.1358 13.016C65.0838 12.8947 64.9451 12.7647 64.7198 12.626L63.5758 12.002L63.6538 10.052C63.9484 9.98267 64.1998 9.93933 64.4078 9.922C66.5051 9.48867 68.0564 9.25467 69.0618 9.22C69.2178 9.67067 69.3651 10.234 69.5038 10.91C70.5438 10.0953 71.4278 9.532 72.1558 9.22H73.6378C73.6204 9.87867 73.5771 10.598 73.5078 11.378C73.4384 12.1407 73.3518 12.756 73.2478 13.224C72.6238 13.1893 72.1644 13.172 71.8698 13.172C71.1418 13.172 70.3878 13.2153 69.6078 13.302V19.204C69.6078 19.568 69.6338 19.8107 69.6858 19.932C69.7378 20.0533 69.8764 20.1833 70.1018 20.322L71.6618 21.154L71.5578 23H63.7578L63.6278 20.53ZM78.4161 23.338C77.2374 23.338 76.2928 23.0173 75.5821 22.376C74.8714 21.7173 74.5161 20.8767 74.5161 19.854C74.5161 18.4847 75.2008 17.41 76.5701 16.63C77.9568 15.85 79.9674 15.408 82.6021 15.304C82.6021 14.4893 82.5328 13.8913 82.3941 13.51C82.2728 13.1113 82.0388 12.8427 81.6921 12.704C81.3628 12.548 80.8514 12.47 80.1581 12.47C79.4474 12.47 78.9448 12.496 78.6501 12.548L77.5841 14.654L75.6601 14.524C75.3654 13.1373 75.1574 11.6987 75.0361 10.208C76.0068 9.87867 77.0641 9.61867 78.2081 9.428C79.3694 9.23733 80.4528 9.142 81.4581 9.142C83.2954 9.142 84.6128 9.506 85.4101 10.234C86.2074 10.9447 86.6061 12.132 86.6061 13.796V19.23C86.6061 19.542 86.6321 19.7587 86.6841 19.88C86.7534 20.0013 86.8921 20.1227 87.1001 20.244L88.1401 20.842L88.0361 22.454C86.0254 22.922 84.4394 23.182 83.2781 23.234C83.2434 23.13 83.1914 22.948 83.1221 22.688C83.0528 22.4107 82.9921 22.1507 82.9401 21.908C82.2641 22.3413 81.5188 22.688 80.7041 22.948C79.9068 23.208 79.1441 23.338 78.4161 23.338ZM80.1581 20.4C80.8514 20.4 81.6921 20.166 82.6801 19.698L82.5761 17.722C82.1601 17.6873 81.8828 17.67 81.7441 17.67C81.2761 17.67 80.7301 17.722 80.1061 17.826C79.4821 17.9127 78.9881 18.0167 78.6241 18.138C78.5721 18.3633 78.5461 18.5713 78.5461 18.762C78.5461 19.282 78.6848 19.6893 78.9621 19.984C79.2568 20.2613 79.6554 20.4 80.1581 20.4ZM89.1374 12.964C88.9468 12.496 88.8168 12.1927 88.7474 12.054C88.6781 11.9153 88.5481 11.7247 88.3574 11.482L87.9154 10.91L88.0454 9.402H94.5974L94.8574 11.612L93.3494 11.976L95.7154 18.684L98.0034 12.522C98.0381 12.418 98.0554 12.34 98.0554 12.288C98.0554 12.132 97.9774 12.028 97.8214 11.976L96.5994 11.456L96.8334 9.402H101.773L102.033 11.508L96.8854 23.052L93.1414 23.338L89.1374 12.964ZM109.244 23.312C107.216 23.312 105.647 22.6967 104.538 21.466C103.446 20.2353 102.9 18.5367 102.9 16.37C102.9 14.862 103.168 13.5707 103.706 12.496C104.243 11.404 105.006 10.572 105.994 10C106.982 9.428 108.134 9.142 109.452 9.142C111.41 9.142 112.91 9.766 113.95 11.014C115.007 12.262 115.51 14.0387 115.458 16.344L107.554 17.8C107.796 18.528 108.134 19.0653 108.568 19.412C109.018 19.7413 109.608 19.906 110.336 19.906C110.838 19.906 111.436 19.8367 112.13 19.698C112.823 19.542 113.525 19.334 114.236 19.074L114.834 21.648C114.192 22.1333 113.36 22.532 112.338 22.844C111.315 23.156 110.284 23.312 109.244 23.312ZM111.194 14.16C111.159 13.5013 110.968 13.0247 110.622 12.73C110.292 12.418 109.824 12.262 109.218 12.262C108.715 12.262 108.238 12.3313 107.788 12.47C107.424 13.3193 107.259 14.238 107.294 15.226L111.194 14.16ZM116.211 20.608L118.031 20.062V7.608C118.031 7.22667 117.996 6.984 117.927 6.88C117.875 6.75867 117.727 6.62867 117.485 6.49L116.341 5.892L116.471 3.916C116.817 3.84667 117.086 3.80333 117.277 3.786C119.565 3.37 121.159 3.14467 122.061 3.11C122.234 3.50867 122.347 3.95933 122.399 4.462V19.204C122.399 19.568 122.425 19.8107 122.477 19.932C122.529 20.0533 122.676 20.1833 122.919 20.322L124.193 21.05L124.089 23H116.289L116.211 20.608ZM131.308 23.312C129.28 23.312 127.712 22.6967 126.602 21.466C125.51 20.2353 124.964 18.5367 124.964 16.37C124.964 14.862 125.233 13.5707 125.77 12.496C126.308 11.404 127.07 10.572 128.058 10C129.046 9.428 130.199 9.142 131.516 9.142C133.475 9.142 134.974 9.766 136.014 11.014C137.072 12.262 137.574 14.0387 137.522 16.344L129.618 17.8C129.861 18.528 130.199 19.0653 130.632 19.412C131.083 19.7413 131.672 19.906 132.4 19.906C132.903 19.906 133.501 19.8367 134.194 19.698C134.888 19.542 135.59 19.334 136.3 19.074L136.898 21.648C136.257 22.1333 135.425 22.532 134.402 22.844C133.38 23.156 132.348 23.312 131.308 23.312ZM133.258 14.16C133.224 13.5013 133.033 13.0247 132.686 12.73C132.357 12.418 131.889 12.262 131.282 12.262C130.78 12.262 130.303 12.3313 129.852 12.47C129.488 13.3193 129.324 14.238 129.358 15.226L133.258 14.16ZM138.708 20.53L140.294 20.062V13.744C140.294 13.3627 140.268 13.12 140.216 13.016C140.164 12.8947 140.025 12.7647 139.8 12.626L138.656 12.002L138.734 10.052C139.029 9.98267 139.28 9.93933 139.488 9.922C141.585 9.48867 143.137 9.25467 144.142 9.22C144.298 9.67067 144.445 10.234 144.584 10.91C145.624 10.0953 146.508 9.532 147.236 9.22H148.718C148.701 9.87867 148.657 10.598 148.588 11.378C148.519 12.1407 148.432 12.756 148.328 13.224C147.704 13.1893 147.245 13.172 146.95 13.172C146.222 13.172 145.468 13.2153 144.688 13.302V19.204C144.688 19.568 144.714 19.8107 144.766 19.932C144.818 20.0533 144.957 20.1833 145.182 20.322L146.742 21.154L146.638 23H138.838L138.708 20.53ZM154.435 23.442C153.066 23.442 151.48 23.1993 149.677 22.714C149.781 21.0153 149.894 19.7587 150.015 18.944L151.497 18.658L153.135 20.4C153.707 20.5733 154.349 20.66 155.059 20.66C155.458 20.66 155.77 20.634 155.995 20.582C156.047 20.4433 156.073 20.2527 156.073 20.01C156.073 19.802 156.021 19.6287 155.917 19.49C155.831 19.3513 155.623 19.1867 155.293 18.996C154.964 18.8053 154.392 18.5107 153.577 18.112C152.555 17.5747 151.775 17.098 151.237 16.682C150.7 16.2487 150.31 15.8067 150.067 15.356C149.842 14.9053 149.729 14.368 149.729 13.744C149.729 12.3573 150.241 11.2567 151.263 10.442C152.303 9.62733 153.707 9.22 155.475 9.22C156.203 9.22 156.966 9.30667 157.763 9.48C158.578 9.636 159.306 9.85267 159.947 10.13C159.947 11.2567 159.869 12.5133 159.713 13.9L158.361 14.108L156.619 12.236C156.169 12.0973 155.51 12.028 154.643 12.028C154.505 12.028 154.227 12.0453 153.811 12.08C153.759 12.184 153.733 12.3487 153.733 12.574C153.733 12.8167 153.803 13.0333 153.941 13.224C154.08 13.3973 154.323 13.5967 154.669 13.822C155.033 14.03 155.605 14.3333 156.385 14.732C157.529 15.2867 158.387 15.772 158.959 16.188C159.549 16.5867 159.956 16.994 160.181 17.41C160.424 17.826 160.545 18.3287 160.545 18.918C160.545 20.3393 159.999 21.4487 158.907 22.246C157.833 23.0433 156.342 23.442 154.435 23.442Z" fill="white"/>
</svg>
