<svg width="175" height="28" viewBox="0 0 175 28" fill="none" xmlns="http://www.w3.org/2000/svg">
<g clip-path="url(#clip0_8_89)">
<path d="M27.5503 22.4C32.2081 22.4 35.984 18.6392 35.984 14C35.984 9.36082 32.2081 5.6 27.5503 5.6C23.1789 5.6 19.5843 8.91247 19.1587 13.1547C17.4356 12.3785 15.5741 11.9146 13.6678 11.7926C14.7306 5.10938 20.5413 0 27.5503 0C35.3133 0 41.6065 6.26802 41.6065 14C41.6065 21.45 35.764 27.5408 28.3936 27.9752V28H19.1302V26.7782C19.1302 25.1909 18.473 23.6475 17.2684 22.4935C16.0604 21.3363 14.4012 20.6691 12.6506 20.6691C10.9 20.6691 9.24077 21.3363 8.03278 22.4935C6.82826 23.6475 6.17103 25.1909 6.17103 26.7782V28H0V26.7483C0 23.476 1.36348 20.3634 3.74838 18.0879C6.05698 15.8851 9.13985 14.6371 12.3492 14.5635C12.4495 14.5612 12.55 14.56 12.6506 14.56C12.7285 14.56 12.8063 14.5607 12.8841 14.5621C16.1178 14.6196 19.2279 15.8695 21.5528 18.0879C22.8407 19.3167 23.8308 20.7896 24.469 22.4H27.5503Z" fill="#A3E642"/>
<path d="M15.2348 24.4472C15.9201 25.0408 16.3052 25.8459 16.3052 26.6854V28H8.99597V26.6854C8.99597 25.8459 9.38104 25.0408 10.0664 24.4472C10.7517 23.8535 11.6813 23.52 12.6506 23.52C13.6198 23.52 14.5494 23.8535 15.2348 24.4472Z" fill="#A3E642"/>
<path d="M30.7704 12.6254C29.7541 12.6254 28.9303 11.8049 28.9303 10.7927V10.3345C28.9303 9.57545 28.3124 8.96001 27.5502 8.96001C26.788 8.96001 26.1702 9.57538 26.1702 10.3345V10.7927C26.1702 11.8049 25.3464 12.6254 24.3301 12.6254H23.87C23.1079 12.6254 22.49 13.2409 22.49 14C22.49 14.7592 23.1079 15.3745 23.87 15.3745H24.3301C25.3464 15.3745 26.1702 16.1951 26.1702 17.2073V17.6655C26.1702 18.4246 26.788 19.04 27.5502 19.04C28.3124 19.04 28.9303 18.4246 28.9303 17.6655V17.2073C28.9303 16.1951 29.7541 15.3745 30.7704 15.3745H31.2304C31.9926 15.3745 32.6105 14.7592 32.6105 14C32.6105 13.2409 31.9926 12.6254 31.2304 12.6254H30.7704Z" fill="#A3E642"/>
<path d="M7.87156 2.24003C7.87156 3.47712 8.87847 4.47999 10.1206 4.47999H10.6827C11.6143 4.47999 12.3695 5.23216 12.3695 6.15999C12.3695 7.08785 11.6143 7.84 10.6827 7.84H10.1206C8.87847 7.84 7.87156 8.84289 7.87156 10.0799V10.64C7.87156 11.5679 7.11639 12.32 6.18482 12.32C5.25325 12.32 4.49807 11.5679 4.49807 10.64V10.08C4.49807 8.84289 3.49116 7.84 2.24907 7.84H1.68675C0.755185 7.84 0 7.08785 0 6.15999C0 5.23216 0.755185 4.47999 1.68675 4.47999H2.24908C3.49116 4.47999 4.49807 3.47712 4.49807 2.24V1.68C4.49807 0.752164 5.25325 0 6.18482 0C7.11639 0 7.87156 0.752164 7.87156 1.68V2.24003Z" fill="#A3E642"/>
<path d="M168.167 9.26717C172.39 9.26717 174.429 12.2057 174.429 15.6094V22.0006H170.009V16.3685C170.009 14.8258 169.444 13.5525 167.824 13.5525C166.203 13.5525 165.662 14.8258 165.662 16.3685V22.0006H161.242V16.3685C161.242 14.8258 160.702 13.5525 159.081 13.5525C157.461 13.5525 156.896 14.8258 156.896 16.3685V22.0006H152.476V15.6094C152.476 12.2057 154.514 9.26717 158.738 9.26717C161.046 9.26717 162.716 10.1732 163.477 11.667C164.287 10.1732 166.055 9.26717 168.167 9.26717Z" fill="white"/>
<path d="M144.533 18.0826C145.958 18.0826 146.571 16.7848 146.571 15.2421V9.75696H150.991V15.7808C150.991 19.3805 148.879 22.3679 144.533 22.3679C140.187 22.3679 138.075 19.3805 138.075 15.7808V9.75696H142.495V15.2421C142.495 16.7848 143.109 18.0826 144.533 18.0826Z" fill="white"/>
<path d="M131.575 22.3924C128.801 22.3924 127.008 21.4374 125.952 19.5763L129.144 17.7887C129.586 18.5724 130.25 18.9642 131.355 18.9642C132.263 18.9642 132.681 18.6458 132.681 18.254C132.681 16.7603 126.198 18.2785 126.198 13.528C126.198 11.2262 128.162 9.36516 131.502 9.36516C134.424 9.36516 136.021 10.7854 136.733 12.1567L133.54 13.9688C133.27 13.2341 132.435 12.7933 131.6 12.7933C130.962 12.7933 130.618 13.0627 130.618 13.4301C130.618 14.9482 137.101 13.5525 137.101 18.1561C137.101 20.7273 134.571 22.3924 131.575 22.3924Z" fill="white"/>
<path d="M116.133 27.6327H111.713V15.8543C111.713 12.1077 114.537 9.38959 118.466 9.38959C122.296 9.38959 125.219 12.3036 125.219 15.8543C125.219 19.7723 122.616 22.3679 118.711 22.3679C117.803 22.3679 116.895 22.0986 116.133 21.6823V27.6327ZM118.466 18.2295C119.865 18.2295 120.799 17.1521 120.799 15.8788C120.799 14.5809 119.865 13.528 118.466 13.528C117.066 13.528 116.133 14.5809 116.133 15.8788C116.133 17.1521 117.066 18.2295 118.466 18.2295Z" fill="white"/>
<path d="M107.285 8.45909C105.836 8.45909 104.633 7.25922 104.633 5.81447C104.633 4.36971 105.836 3.16983 107.285 3.16983C108.734 3.16983 109.937 4.36971 109.937 5.81447C109.937 7.25922 108.734 8.45909 107.285 8.45909ZM105.075 9.75696H109.495V22.0006H105.075V9.75696Z" fill="white"/>
<path d="M96.5951 22.3679C92.7641 22.3679 89.8418 19.4294 89.8418 15.8543C89.8418 12.3036 92.7641 9.36516 96.5951 9.36516C100.425 9.36516 103.348 12.3036 103.348 15.8543C103.348 19.4294 100.425 22.3679 96.5951 22.3679ZM96.5951 18.2295C97.9944 18.2295 98.9277 17.1521 98.9277 15.8788C98.9277 14.5809 97.9944 13.5035 96.5951 13.5035C95.1951 13.5035 94.2618 14.5809 94.2618 15.8788C94.2618 17.1521 95.1951 18.2295 96.5951 18.2295Z" fill="white"/>
<path d="M81.4959 28C78.4506 28 76.241 26.6532 75.1108 24.2535L78.7697 22.2944C79.1625 23.127 79.8998 23.9841 81.4221 23.9841C83.0182 23.9841 84.0738 22.9801 84.1968 21.217C83.6078 21.7312 82.6745 22.1231 81.2745 22.1231C77.8616 22.1231 75.1108 19.5029 75.1108 15.8298C75.1108 12.2791 78.0331 9.38959 81.8642 9.38959C85.7929 9.38959 88.6168 12.1077 88.6168 15.8543V20.7028C88.6168 25.1105 85.5476 28 81.4959 28ZM81.7904 17.9847C83.1166 17.9847 84.123 17.0787 84.123 15.7319C84.123 14.4095 83.1166 13.528 81.7904 13.528C80.4887 13.528 79.4577 14.4095 79.4577 15.7319C79.4577 17.0787 80.4887 17.9847 81.7904 17.9847Z" fill="white"/>
<path d="M67.6131 22.3679C63.7824 22.3679 60.8602 19.4294 60.8602 15.8543C60.8602 12.3036 63.7824 9.36516 67.6131 9.36516C71.4435 9.36516 74.3658 12.3036 74.3658 15.8543C74.3658 19.4294 71.4435 22.3679 67.6131 22.3679ZM67.6131 18.2295C69.0128 18.2295 69.9459 17.1521 69.9459 15.8788C69.9459 14.5809 69.0128 13.5035 67.6131 13.5035C66.2134 13.5035 65.2803 14.5809 65.2803 15.8788C65.2803 17.1521 66.2134 18.2295 67.6131 18.2295Z" fill="white"/>
<path d="M52.8114 5.47163V17.8377H60.1291V22.0006H52.1975C49.3981 22.0006 48.2686 20.5314 48.2686 18.205V5.47163H52.8114Z" fill="white"/>
</g>
<defs>
<clipPath id="clip0_8_89">
<rect width="175" height="28" fill="white"/>
</clipPath>
</defs>
</svg>
